<svg width="691" height="424" viewBox="0 0 691 424" fill="none" xmlns="http://www.w3.org/2000/svg">
<g clip-path="url(#clip0_3_144)">
<path d="M416.947 375.394L392.022 382.087L417.128 366.633C416.588 341.998 407.997 316.453 407.997 316.453C407.997 316.453 354.344 332.012 340.262 358.954C326.181 385.895 337.265 403.682 357.004 414.018C376.742 424.354 397.66 423.326 411.741 396.385C414.875 390.388 416.426 383.1 416.947 375.394Z" fill="#F2F2F2"/>
<path d="M387.257 380.66L386.563 381.988C378.416 397.383 369.521 408.065 359.985 413.874C359.847 413.961 359.707 414.038 359.569 414.125L359.18 413.477L358.813 412.85C369.261 406.657 378.03 394.761 385.14 381.335C385.373 380.904 385.61 380.467 385.833 380.023C388.793 374.313 391.458 368.365 393.828 362.472C394.015 362.017 394.199 361.553 394.384 361.088C397.471 353.293 400.045 345.647 402.108 338.915C402.256 338.44 402.397 337.961 402.535 337.489C405.98 326.08 407.891 317.51 408.301 315.605C408.355 315.374 408.381 315.245 408.388 315.216L409.104 315.365L409.114 315.362L409.838 315.514C409.831 315.544 409.746 315.977 409.566 316.77C408.908 319.742 407.04 327.765 403.961 338.027C403.82 338.489 403.678 338.967 403.53 339.442C401.862 344.907 399.868 350.947 397.539 357.164C396.957 358.726 396.365 360.258 395.764 361.761C395.586 362.229 395.402 362.693 395.214 363.148C392.654 369.519 390.002 375.357 387.257 380.66Z" fill="#15282E"/>
<path d="M403.961 338.027C403.49 337.855 403.012 337.681 402.535 337.489C401.238 336.972 399.968 336.388 398.731 335.74C393.455 332.986 388.863 329.082 385.294 324.316C384.836 324.52 384.378 324.724 383.91 324.931C387.637 329.997 392.471 334.144 398.044 337.055C399.365 337.746 400.721 338.367 402.108 338.915C402.578 339.103 403.056 339.278 403.53 339.442C407.435 340.823 411.527 341.602 415.666 341.753C415.572 341.243 415.482 340.744 415.395 340.254C411.495 340.079 407.642 339.329 403.961 338.027Z" fill="#15282E"/>
<path d="M395.764 361.761C395.297 361.55 394.837 361.325 394.383 361.088C394.242 361.022 394.098 360.947 393.96 360.875C388.246 357.883 383.34 353.552 379.66 348.253C375.98 342.953 373.635 336.841 372.825 330.438C372.359 330.689 371.894 330.939 371.431 331.199C372.351 337.73 374.812 343.948 378.61 349.337C382.408 354.726 387.434 359.132 393.272 362.189C393.456 362.286 393.64 362.382 393.828 362.472C394.291 362.706 394.751 362.93 395.214 363.148C402.415 366.46 410.416 367.627 418.262 366.508C418.254 366.01 418.247 365.512 418.233 365.011C410.587 366.139 402.778 365.009 395.764 361.761Z" fill="#15282E"/>
<path d="M387.257 380.66C386.777 380.459 386.304 380.244 385.833 380.023C385.331 379.785 384.831 379.54 384.339 379.282C376.666 375.253 370.504 368.845 366.774 361.017C363.045 353.189 361.949 344.362 363.651 335.859C363.077 336.236 362.506 336.607 361.946 336.992C360.526 345.622 361.859 354.479 365.755 362.307C369.652 370.135 375.914 376.535 383.651 380.597C384.144 380.855 384.64 381.107 385.14 381.335C385.613 381.566 386.086 381.78 386.563 381.988C396.23 386.124 407.105 386.428 416.988 382.84C417.104 382.281 417.197 381.718 417.294 381.149C407.599 384.902 396.825 384.727 387.257 380.66Z" fill="#15282E"/>
<path d="M89.6303 377.731L114.555 384.423L89.45 368.97C89.99 344.335 98.5804 318.79 98.5804 318.79C98.5804 318.79 152.234 334.349 166.315 361.29C180.397 388.232 169.312 406.018 149.574 416.355C129.836 426.691 108.918 425.663 94.8367 398.721C91.7024 392.725 90.1516 385.437 89.6303 377.731Z" fill="#F2F2F2"/>
<path d="M119.32 382.997L120.014 384.325C128.161 399.72 137.057 410.402 146.593 416.21C146.731 416.297 146.871 416.375 147.009 416.462L147.398 415.814L147.765 415.187C137.316 408.993 128.547 397.098 121.438 383.672C121.205 383.241 120.968 382.804 120.744 382.36C117.785 376.65 115.119 370.702 112.75 364.808C112.563 364.354 112.379 363.889 112.194 363.425C109.107 355.629 106.533 347.984 104.47 341.252C104.322 340.777 104.181 340.298 104.043 339.826C100.598 328.417 98.6864 319.846 98.2768 317.942C98.2228 317.711 98.1972 317.582 98.1901 317.552L97.4733 317.701L97.4633 317.698L96.74 317.851C96.7472 317.881 96.8314 318.314 97.0118 319.107C97.6697 322.079 99.5376 330.102 102.617 340.363C102.758 340.825 102.9 341.304 103.048 341.779C104.716 347.244 106.71 353.284 109.039 359.5C109.621 361.063 110.213 362.595 110.814 364.097C110.992 364.565 111.176 365.03 111.363 365.484C113.924 371.856 116.576 377.693 119.32 382.997Z" fill="#15282E"/>
<path d="M91.1829 342.591C91.0957 343.081 91.0054 343.58 90.912 344.09C95.0507 343.939 99.1425 343.16 103.048 341.779C103.522 341.614 103.999 341.44 104.47 341.252C105.857 340.704 107.213 340.083 108.534 339.392C114.107 336.481 118.941 332.334 122.668 327.268C122.2 327.06 121.742 326.856 121.284 326.652C117.715 331.419 113.123 335.323 107.847 338.077C106.609 338.725 105.34 339.308 104.043 339.826C103.566 340.017 103.088 340.192 102.617 340.363C98.9361 341.665 95.0831 342.416 91.1829 342.591Z" fill="#15282E"/>
<path d="M88.3447 367.348C88.3307 367.849 88.3233 368.347 88.3158 368.845C96.1613 369.964 104.163 368.797 111.363 365.484C111.827 365.267 112.287 365.043 112.75 364.808C112.937 364.719 113.121 364.622 113.305 364.526C119.143 361.469 124.17 357.063 127.968 351.674C131.766 346.284 134.227 340.067 135.146 333.536C134.684 333.276 134.218 333.025 133.753 332.775C132.943 339.178 130.597 345.29 126.917 350.59C123.237 355.889 118.331 360.219 112.618 363.211C112.48 363.284 112.336 363.359 112.194 363.425C111.741 363.662 111.281 363.886 110.814 364.097C103.8 367.346 95.9909 368.476 88.3447 367.348Z" fill="#15282E"/>
<path d="M89.2841 383.486C89.3807 384.055 89.4739 384.618 89.5902 385.176C99.4725 388.765 110.348 388.461 120.014 384.325C120.491 384.117 120.965 383.903 121.438 383.672C121.938 383.443 122.434 383.192 122.926 382.934C130.664 378.872 136.926 372.472 140.822 364.644C144.719 356.816 146.052 347.958 144.632 339.329C144.071 338.944 143.501 338.573 142.927 338.195C144.629 346.699 143.533 355.526 139.803 363.354C136.074 371.182 129.912 377.59 122.239 381.619C121.747 381.877 121.247 382.122 120.744 382.36C120.274 382.581 119.801 382.796 119.32 382.997C109.753 387.063 98.9788 387.239 89.2841 383.486Z" fill="#15282E"/>
<path d="M206.488 396.596L221.326 400.58L206.38 391.38C206.702 376.715 211.816 361.507 211.816 361.507C211.816 361.507 243.757 370.769 252.14 386.808C260.523 402.847 253.925 413.436 242.174 419.59C230.423 425.743 217.97 425.131 209.587 409.092C207.721 405.522 206.798 401.183 206.488 396.596Z" fill="#F2F2F2"/>
<path d="M224.163 399.731L224.576 400.522C229.426 409.687 234.722 416.046 240.399 419.504C240.481 419.556 240.565 419.601 240.647 419.653L240.878 419.268L241.096 418.894C234.876 415.207 229.656 408.126 225.424 400.133C225.285 399.876 225.144 399.616 225.011 399.352C223.249 395.952 221.662 392.411 220.251 388.903C220.14 388.632 220.03 388.356 219.921 388.079C218.083 383.438 216.55 378.887 215.322 374.879C215.234 374.596 215.15 374.311 215.068 374.03C213.017 367.238 211.879 362.136 211.635 361.002C211.603 360.864 211.588 360.788 211.583 360.77L211.157 360.859L211.151 360.857L210.72 360.948C210.724 360.966 210.775 361.223 210.882 361.696C211.274 363.465 212.386 368.241 214.219 374.35C214.303 374.625 214.387 374.91 214.475 375.193C215.469 378.446 216.656 382.042 218.042 385.743C218.389 386.673 218.741 387.585 219.099 388.479C219.205 388.758 219.314 389.035 219.426 389.305C220.95 393.098 222.529 396.573 224.163 399.731Z" fill="#15282E"/>
<path d="M207.412 375.676C207.36 375.968 207.306 376.265 207.251 376.568C209.715 376.479 212.151 376.015 214.475 375.193C214.758 375.095 215.042 374.991 215.322 374.879C216.148 374.553 216.955 374.183 217.742 373.772C221.059 372.039 223.937 369.57 226.156 366.554C225.877 366.43 225.605 366.309 225.332 366.188C223.207 369.025 220.474 371.349 217.332 372.989C216.596 373.374 215.84 373.722 215.068 374.03C214.784 374.144 214.499 374.248 214.219 374.35C212.028 375.125 209.734 375.572 207.412 375.676Z" fill="#15282E"/>
<path d="M205.722 390.415C205.714 390.713 205.71 391.009 205.705 391.306C210.376 391.972 215.139 391.277 219.426 389.305C219.702 389.176 219.976 389.042 220.252 388.903C220.363 388.849 220.473 388.792 220.582 388.735C224.058 386.915 227.05 384.292 229.311 381.083C231.572 377.875 233.037 374.174 233.585 370.286C233.309 370.131 233.032 369.982 232.755 369.833C232.273 373.644 230.877 377.283 228.686 380.438C226.495 383.593 223.574 386.171 220.173 387.952C220.091 387.995 220.005 388.04 219.921 388.079C219.651 388.22 219.377 388.354 219.099 388.479C214.923 390.414 210.274 391.086 205.722 390.415Z" fill="#15282E"/>
<path d="M206.282 400.022C206.339 400.361 206.395 400.696 206.464 401.028C212.347 403.165 218.821 402.984 224.576 400.522C224.86 400.398 225.142 400.27 225.424 400.133C225.721 399.997 226.017 399.847 226.31 399.693C230.916 397.275 234.644 393.465 236.964 388.805C239.283 384.145 240.077 378.872 239.232 373.734C238.898 373.505 238.558 373.284 238.217 373.059C239.23 378.122 238.577 383.377 236.357 388.037C234.137 392.697 230.468 396.512 225.901 398.911C225.607 399.064 225.31 399.21 225.011 399.352C224.731 399.483 224.449 399.611 224.163 399.731C218.467 402.152 212.053 402.256 206.282 400.022Z" fill="#15282E"/>
<path d="M502.871 261.755L502.807 261.749C491.005 259.799 477.895 259.8 462.726 261.752H462.72C462.342 261.756 461.966 261.686 461.615 261.544C461.264 261.403 460.944 261.193 460.675 260.927C460.405 260.662 460.19 260.345 460.043 259.996C459.896 259.647 459.82 259.272 459.818 258.894V245.143C459.819 244.385 460.12 243.658 460.656 243.121C461.192 242.585 461.919 242.283 462.677 242.282C476.034 240.539 489.561 240.54 502.919 242.285H502.924C503.673 242.296 504.388 242.603 504.913 243.138C505.438 243.673 505.731 244.393 505.729 245.143V258.894C505.728 259.652 505.427 260.379 504.891 260.916C504.355 261.452 503.629 261.754 502.871 261.755Z" fill="#15282E"/>
<path d="M502.871 261.755L502.807 261.749C491.005 259.799 477.895 259.8 462.726 261.752H462.72C462.342 261.756 461.966 261.686 461.615 261.544C461.264 261.403 460.944 261.193 460.675 260.927C460.405 260.662 460.19 260.345 460.043 259.996C459.896 259.647 459.82 259.272 459.818 258.894V245.143C459.819 244.385 460.12 243.658 460.656 243.121C461.192 242.585 461.919 242.283 462.677 242.282C476.034 240.539 489.561 240.54 502.919 242.285H502.924C503.673 242.296 504.388 242.603 504.913 243.138C505.438 243.673 505.731 244.393 505.729 245.143V258.894C505.728 259.652 505.427 260.379 504.891 260.916C504.355 261.452 503.629 261.754 502.871 261.755ZM482.263 241.756C475.73 241.745 469.204 242.179 462.73 243.057C462.452 243.053 462.177 243.104 461.919 243.206C461.662 243.309 461.427 243.462 461.229 243.656C461.03 243.849 460.872 244.081 460.764 244.336C460.655 244.592 460.598 244.866 460.596 245.143V258.894C460.597 259.446 460.816 259.975 461.206 260.365C461.596 260.756 462.125 260.975 462.677 260.976C477.858 259.019 491.032 259.018 502.901 260.976C503.447 260.967 503.968 260.744 504.352 260.354C504.735 259.965 504.95 259.44 504.951 258.894V245.143C504.95 244.591 504.731 244.062 504.341 243.672C503.951 243.281 503.422 243.062 502.871 243.061C496.035 242.203 489.153 241.767 482.263 241.756Z" fill="#DA1D2D"/>
<path d="M482.773 256.814C485.782 256.814 488.221 254.373 488.221 251.362C488.221 248.351 485.782 245.91 482.773 245.91C479.765 245.91 477.326 248.351 477.326 251.362C477.326 254.373 479.765 256.814 482.773 256.814Z" fill="white"/>
<path d="M468.767 248.513H464.098C463.788 248.513 463.492 248.39 463.273 248.171C463.054 247.952 462.931 247.655 462.931 247.345V245.787C462.931 245.478 463.054 245.181 463.273 244.962C463.492 244.742 463.788 244.619 464.098 244.619H468.767C469.076 244.619 469.373 244.742 469.592 244.962C469.811 245.181 469.934 245.478 469.934 245.787V247.345C469.934 247.655 469.811 247.952 469.592 248.171C469.373 248.39 469.076 248.513 468.767 248.513Z" fill="white"/>
<path d="M501.449 259.418H496.78C496.471 259.418 496.174 259.295 495.955 259.075C495.736 258.856 495.613 258.559 495.613 258.25V256.692C495.613 256.382 495.736 256.085 495.955 255.866C496.174 255.647 496.471 255.524 496.78 255.524H501.449C501.759 255.524 502.055 255.647 502.274 255.866C502.493 256.085 502.616 256.382 502.616 256.692V258.25C502.616 258.559 502.493 258.856 502.274 259.075C502.055 259.295 501.759 259.418 501.449 259.418Z" fill="white"/>
<path d="M496.228 256.068L496.171 256.038C486.056 249.647 473.977 244.544 459.244 240.438L459.239 240.436C458.888 240.293 458.57 240.082 458.301 239.815C458.033 239.548 457.82 239.23 457.674 238.88C457.529 238.53 457.454 238.155 457.455 237.777C457.455 237.398 457.53 237.023 457.676 236.673L463.018 224.005C463.313 223.307 463.873 222.754 464.576 222.469C465.278 222.183 466.064 222.188 466.763 222.482C479.746 226.075 492.208 231.342 503.836 238.15L503.841 238.152C504.527 238.453 505.066 239.014 505.342 239.711C505.618 240.408 505.608 241.187 505.315 241.877L499.973 254.545C499.677 255.243 499.117 255.796 498.415 256.081C497.713 256.367 496.926 256.362 496.228 256.068Z" fill="#15282E"/>
<path d="M496.228 256.068L496.171 256.038C486.056 249.647 473.977 244.544 459.244 240.438L459.239 240.436C458.888 240.293 458.57 240.082 458.301 239.815C458.033 239.548 457.82 239.23 457.674 238.88C457.529 238.53 457.454 238.155 457.455 237.777C457.455 237.398 457.53 237.023 457.676 236.673L463.018 224.005C463.313 223.307 463.873 222.754 464.576 222.469C465.278 222.183 466.064 222.188 466.763 222.482C479.746 226.075 492.208 231.342 503.836 238.15L503.841 238.152C504.527 238.453 505.066 239.014 505.342 239.711C505.618 240.408 505.608 241.187 505.315 241.877L499.973 254.545C499.677 255.243 499.117 255.796 498.415 256.081C497.713 256.367 496.926 256.362 496.228 256.068ZM485.012 229.622C478.998 227.068 472.816 224.928 466.51 223.217C466.257 223.105 465.983 223.044 465.706 223.038C465.429 223.033 465.153 223.082 464.895 223.184C464.637 223.285 464.402 223.437 464.203 223.63C464.003 223.823 463.844 224.053 463.735 224.308L458.392 236.976C458.179 237.485 458.175 238.058 458.383 238.569C458.59 239.081 458.992 239.489 459.5 239.704C474.247 243.811 486.384 248.938 496.559 255.362C497.065 255.566 497.632 255.564 498.136 255.354C498.641 255.145 499.043 254.745 499.256 254.242L504.598 241.574C504.812 241.065 504.815 240.492 504.608 239.98C504.4 239.469 503.998 239.061 503.49 238.846C497.526 235.394 491.355 232.314 485.012 229.622Z" fill="#DA1D2D"/>
<path d="M481.75 244.123C484.758 244.123 487.197 241.681 487.197 238.67C487.197 235.659 484.758 233.218 481.75 233.218C478.742 233.218 476.303 235.659 476.303 238.67C476.303 241.681 478.742 244.123 481.75 244.123Z" fill="white"/>
<path d="M469.953 230.593L465.651 228.776C465.366 228.655 465.141 228.426 465.024 228.139C464.908 227.852 464.91 227.531 465.03 227.245L465.635 225.81C465.756 225.525 465.985 225.299 466.271 225.183C466.558 225.066 466.879 225.068 467.164 225.188L471.466 227.006C471.751 227.126 471.976 227.355 472.093 227.642C472.209 227.929 472.207 228.251 472.087 228.536L471.482 229.971C471.361 230.257 471.133 230.482 470.846 230.599C470.559 230.716 470.238 230.714 469.953 230.593Z" fill="white"/>
<path d="M495.826 253.362L491.524 251.544C491.239 251.423 491.014 251.194 490.897 250.908C490.781 250.621 490.783 250.299 490.903 250.014L491.508 248.578C491.629 248.293 491.858 248.067 492.144 247.951C492.431 247.834 492.752 247.836 493.038 247.956L497.339 249.774C497.624 249.895 497.849 250.124 497.966 250.41C498.082 250.697 498.08 251.019 497.96 251.304L497.355 252.74C497.234 253.025 497.006 253.251 496.719 253.367C496.432 253.484 496.111 253.482 495.826 253.362Z" fill="white"/>
<path d="M506.947 248.54C507.927 247.95 508.766 247.151 509.405 246.201C510.043 245.251 510.466 244.173 510.643 243.041C510.82 241.91 510.747 240.754 510.429 239.654C510.111 238.554 509.556 237.537 508.803 236.675L522.584 212.499L508.164 213.431L497.288 236.246C495.925 237.608 495.109 239.423 494.993 241.348C494.878 243.272 495.472 245.172 496.662 246.687C497.853 248.203 499.557 249.228 501.453 249.57C503.348 249.911 505.303 249.545 506.947 248.54Z" fill="#FFB6B6"/>
<path d="M613.026 413.35H603.486L598.948 376.517L613.028 376.518L613.026 413.35Z" fill="#FFB6B6"/>
<path d="M615.459 422.607L584.698 422.605V422.216C584.698 419.038 585.96 415.989 588.205 413.742C590.45 411.495 593.495 410.232 596.671 410.232H596.672L615.459 410.233L615.459 422.607Z" fill="#15282E"/>
<path d="M547.661 413.35H538.121L533.583 376.517L547.663 376.518L547.661 413.35Z" fill="#FFB6B6"/>
<path d="M550.094 422.607L519.333 422.605V422.216C519.333 419.038 520.595 415.989 522.84 413.742C525.085 411.495 528.131 410.232 531.306 410.232H531.307L550.095 410.233L550.094 422.607Z" fill="#15282E"/>
<path d="M523.13 213.538C523.13 213.538 520.506 250.941 525.674 269.779C530.842 288.617 531.765 402.536 531.765 402.536H549.088L564.102 247.468L598.716 403.082L615.216 401.947L606.167 218.576L523.13 213.538Z" fill="#15282E"/>
<path d="M599.009 87.4511L585.766 77.7779L563.575 82.6145L557.568 96.9013L547.217 102.038C543.814 103.727 540.871 106.218 538.642 109.297C536.413 112.376 534.964 115.95 534.419 119.713L519.632 221.924L606.167 218.576L616.643 98.2025C616.753 96.9451 616.609 95.6785 616.221 94.4776C615.833 93.2768 615.208 92.1661 614.383 91.2113C613.558 90.2565 612.55 89.4771 611.419 88.919C610.288 88.361 609.057 88.0357 607.798 87.9625L599.009 87.4511Z" fill="#E4E4E4"/>
<path d="M541.742 110.022L533.749 120.807L498.938 227.084L515.256 233.623L541.384 184.1L541.742 110.022Z" fill="#E4E4E4"/>
<path d="M570.356 71.5282C584.983 71.5282 596.842 59.6586 596.842 45.0166C596.842 30.3747 584.983 18.505 570.356 18.505C555.728 18.505 543.869 30.3747 543.869 45.0166C543.869 59.6586 555.728 71.5282 570.356 71.5282Z" fill="#15282E"/>
<path d="M570.713 72.7278C581.388 72.7278 590.041 64.0661 590.041 53.3815C590.041 42.6968 581.388 34.0352 570.713 34.0352C560.039 34.0352 551.386 42.6968 551.386 53.3815C551.386 64.0661 560.039 72.7278 570.713 72.7278Z" fill="#FFB9B9"/>
<path d="M585.388 50.8736C573.081 46.4303 568.917 43.7007 555.323 50.8736L550.312 30.8108H590.399L585.388 50.8736Z" fill="#15282E"/>
<path d="M568.208 33.6769C576.51 33.6769 583.241 26.9401 583.241 18.6298C583.241 10.3195 576.51 3.58264 568.208 3.58264C559.906 3.58264 553.175 10.3195 553.175 18.6298C553.175 26.9401 559.906 33.6769 568.208 33.6769Z" fill="#15282E"/>
<path d="M550.312 15.0471C550.314 11.1828 551.802 7.4676 554.468 4.67251C557.134 1.87742 560.773 0.217112 564.629 0.0361663C564.39 0.0248722 564.155 0 563.913 0C559.926 0 556.103 1.58532 553.283 4.4072C550.464 7.22908 548.88 11.0564 548.88 15.0471C548.88 19.0379 550.464 22.8652 553.283 25.687C556.103 28.5089 559.926 30.0942 563.913 30.0942C564.155 30.0942 564.39 30.0694 564.629 30.0581C560.773 29.8771 557.134 28.2168 554.468 25.4217C551.802 22.6266 550.314 18.9114 550.312 15.0471Z" fill="#15282E"/>
<path opacity="0.1" d="M605.471 116.143L600.078 169.953L581.034 207.523L605.471 116.143Z" fill="black"/>
<path d="M35.406 281.757H30.7371V285.651H35.406V281.757Z" fill="#F0F0F0"/>
<path d="M477.031 285.651H467.83V281.757H477.031V285.651ZM458.63 285.651H449.429V281.757H458.63V285.651ZM440.229 285.651H431.028V281.757H440.229V285.651ZM421.828 285.651H412.627V281.757H421.828V285.651ZM403.427 285.651H394.227V281.757H403.427V285.651ZM385.025 285.651H375.825V281.757H385.026L385.025 285.651ZM366.625 285.651H357.425V281.757H366.625V285.651ZM348.224 285.651H339.023V281.757H348.224V285.651ZM329.823 285.651H320.622V281.757H329.823V285.651ZM311.422 285.651H302.221V281.757H311.422L311.422 285.651ZM293.021 285.651H283.82V281.757H293.021L293.021 285.651ZM274.62 285.651H265.419V281.757H274.62L274.62 285.651ZM256.219 285.651H247.018V281.757H256.219L256.219 285.651ZM237.817 285.651H228.617V281.757H237.817L237.817 285.651ZM219.416 285.651H210.216V281.757H219.416L219.416 285.651ZM201.015 285.651H191.815V281.757H201.015L201.015 285.651ZM182.614 285.651H173.414V281.757H182.614L182.614 285.651ZM164.213 285.651H155.013V281.757H164.213L164.213 285.651ZM145.812 285.651H136.612V281.757H145.812L145.812 285.651ZM127.411 285.651H118.211V281.757H127.411L127.411 285.651ZM109.01 285.651H99.8098V281.757H109.01L109.01 285.651ZM90.609 285.651H81.4086V281.757H90.6092L90.609 285.651ZM72.208 285.651H63.0076V281.757H72.2083L72.208 285.651ZM53.807 285.651H44.6066V281.757H53.8072L53.807 285.651Z" fill="#F0F0F0"/>
<path d="M35.406 182.837H30.7371V186.731H35.406V182.837Z" fill="#F0F0F0"/>
<path d="M477.031 186.731H467.83V182.837H477.031V186.731ZM458.63 186.731H449.429V182.837H458.63V186.731ZM440.229 186.731H431.028V182.837H440.229V186.731ZM421.828 186.731H412.627V182.837H421.828V186.731ZM403.427 186.731H394.227V182.837H403.427V186.731ZM385.025 186.731H375.825V182.837H385.026L385.025 186.731ZM366.625 186.731H357.425V182.837H366.625V186.731ZM348.224 186.731H339.023V182.837H348.224V186.731ZM329.823 186.731H320.622V182.837H329.823V186.731ZM311.422 186.731H302.221V182.837H311.422L311.422 186.731ZM293.021 186.731H283.82V182.837H293.021L293.021 186.731ZM274.62 186.731H265.419V182.837H274.62L274.62 186.731ZM256.219 186.731H247.018V182.837H256.219L256.219 186.731ZM237.817 186.731H228.617V182.837H237.817L237.817 186.731ZM219.416 186.731H210.216V182.837H219.416L219.416 186.731ZM201.015 186.731H191.815V182.837H201.015L201.015 186.731ZM182.614 186.731H173.414V182.837H182.614L182.614 186.731ZM164.213 186.731H155.013V182.837H164.213L164.213 186.731ZM145.812 186.731H136.612V182.837H145.812L145.812 186.731ZM127.411 186.731H118.211V182.837H127.411L127.411 186.731ZM109.01 186.731H99.8098V182.837H109.01L109.01 186.731ZM90.609 186.731H81.4086V182.837H90.6092L90.609 186.731ZM72.208 186.731H63.0076V182.837H72.2083L72.208 186.731ZM53.807 186.731H44.6066V182.837H53.8072L53.807 186.731Z" fill="#F0F0F0"/>
<path d="M35.406 83.9162H30.7371V87.8107H35.406V83.9162Z" fill="#F0F0F0"/>
<path d="M477.031 87.8107H467.83V83.9162H477.031V87.8107ZM458.63 87.8107H449.429V83.9162H458.63V87.8107ZM440.229 87.8107H431.028V83.9162H440.229V87.8107ZM421.828 87.8107H412.627V83.9162H421.828V87.8107ZM403.427 87.8107H394.227V83.9162H403.427V87.8107ZM385.025 87.8107H375.825V83.9162H385.026L385.025 87.8107ZM366.625 87.8107H357.425V83.9162H366.625V87.8107ZM348.224 87.8107H339.023V83.9162H348.224V87.8107ZM329.823 87.8107H320.622V83.9162H329.823V87.8107ZM311.422 87.8107H302.221V83.9162H311.422L311.422 87.8107ZM293.021 87.8107H283.82V83.9162H293.021L293.021 87.8107ZM274.62 87.8107H265.419V83.9162H274.62L274.62 87.8107ZM256.219 87.8107H247.018V83.9162H256.219L256.219 87.8107ZM237.817 87.8107H228.617V83.9162H237.817L237.817 87.8107ZM219.416 87.8107H210.216V83.9162H219.416L219.416 87.8107ZM201.015 87.8107H191.815V83.9162H201.015L201.015 87.8107ZM182.614 87.8107H173.414V83.9162H182.614L182.614 87.8107ZM164.213 87.8107H155.013V83.9162H164.213L164.213 87.8107ZM145.812 87.8107H136.612V83.9162H145.812L145.812 87.8107ZM127.411 87.8107H118.211V83.9162H127.411L127.411 87.8107ZM109.01 87.8107H99.8098V83.9162H109.01L109.01 87.8107ZM90.609 87.8107H81.4086V83.9162H90.6092L90.609 87.8107ZM72.208 87.8107H63.0076V83.9162H72.2083L72.208 87.8107ZM53.807 87.8107H44.6066V83.9162H53.8072L53.807 87.8107Z" fill="#F0F0F0"/>
<path d="M182.866 282.925H144.736V423.127H182.866V282.925Z" fill="#15282E"/>
<path d="M189.869 282.925H151.74V423.127H189.869V282.925Z" fill="#DA1D2D"/>
<path d="M273.132 184.005H235.002V423.127H273.132V184.005Z" fill="#15282E"/>
<path d="M280.135 184.005H242.006V423.127H280.135V184.005Z" fill="#DA1D2D"/>
<path d="M363.398 85.0846H325.268V423.127H363.398V85.0846Z" fill="#15282E"/>
<path d="M370.401 85.0846H332.271V423.127H370.401V85.0846Z" fill="#DA1D2D"/>
<path d="M31.1262 95.2102C36.2833 95.2102 40.464 91.0255 40.464 85.8634C40.464 80.7013 36.2833 76.5166 31.1262 76.5166C25.969 76.5166 21.7883 80.7013 21.7883 85.8634C21.7883 91.0255 25.969 95.2102 31.1262 95.2102Z" fill="#F0F0F0"/>
<path d="M31.1262 194.131C36.2833 194.131 40.464 189.946 40.464 184.784C40.464 179.622 36.2833 175.437 31.1262 175.437C25.969 175.437 21.7883 179.622 21.7883 184.784C21.7883 189.946 25.969 194.131 31.1262 194.131Z" fill="#F0F0F0"/>
<path d="M31.1262 293.051C36.2833 293.051 40.464 288.866 40.464 283.704C40.464 278.542 36.2833 274.357 31.1262 274.357C25.969 274.357 21.7883 278.542 21.7883 283.704C21.7883 288.866 25.969 293.051 31.1262 293.051Z" fill="#F0F0F0"/>
<path d="M691 422.255H0V424H691V422.255Z" fill="#15282E"/>
<path d="M583.02 244.619L582.957 244.614C571.155 242.663 558.044 242.664 542.876 244.616H542.87C542.491 244.62 542.116 244.55 541.765 244.408C541.414 244.267 541.094 244.057 540.824 243.792C540.554 243.526 540.34 243.209 540.193 242.86C540.046 242.511 539.969 242.137 539.968 241.758V228.008C539.969 227.249 540.27 226.522 540.806 225.985C541.342 225.449 542.068 225.147 542.826 225.146C556.184 223.403 569.711 223.404 583.068 225.149H583.074C583.823 225.161 584.538 225.467 585.063 226.002C585.588 226.537 585.881 227.258 585.879 228.008V241.758C585.878 242.516 585.577 243.244 585.041 243.78C584.505 244.316 583.778 244.618 583.02 244.619Z" fill="#15282E"/>
<path d="M583.02 244.619L582.957 244.614C571.155 242.663 558.044 242.664 542.876 244.616H542.87C542.491 244.62 542.116 244.55 541.765 244.408C541.414 244.267 541.094 244.057 540.824 243.792C540.554 243.526 540.34 243.209 540.193 242.86C540.046 242.511 539.969 242.137 539.968 241.758V228.008C539.969 227.249 540.27 226.522 540.806 225.985C541.342 225.449 542.068 225.147 542.826 225.146C556.184 223.403 569.711 223.404 583.068 225.149H583.074C583.823 225.161 584.538 225.467 585.063 226.002C585.588 226.537 585.881 227.258 585.879 228.008V241.758C585.878 242.516 585.577 243.244 585.041 243.78C584.505 244.316 583.778 244.618 583.02 244.619ZM562.413 224.62C555.88 224.609 549.353 225.043 542.879 225.922C542.602 225.917 542.327 225.968 542.069 226.07C541.811 226.173 541.577 226.326 541.378 226.52C541.18 226.714 541.022 226.945 540.914 227.2C540.805 227.456 540.748 227.73 540.746 228.008V241.758C540.747 242.31 540.966 242.839 541.356 243.23C541.746 243.62 542.275 243.839 542.826 243.84C558.008 241.883 571.182 241.883 583.051 243.84C583.597 243.831 584.118 243.608 584.501 243.219C584.885 242.829 585.1 242.305 585.101 241.758V228.008C585.1 227.456 584.881 226.926 584.491 226.536C584.101 226.146 583.572 225.926 583.02 225.925C576.185 225.067 569.302 224.631 562.413 224.62Z" fill="#DA1D2D"/>
<path d="M562.923 239.679C565.932 239.679 568.37 237.238 568.37 234.226C568.37 231.215 565.932 228.774 562.923 228.774C559.915 228.774 557.476 231.215 557.476 234.226C557.476 237.238 559.915 239.679 562.923 239.679Z" fill="white"/>
<path d="M548.917 231.378H544.248C543.938 231.377 543.642 231.254 543.423 231.035C543.204 230.816 543.081 230.519 543.081 230.209V228.652C543.081 228.342 543.204 228.045 543.423 227.826C543.642 227.607 543.938 227.483 544.248 227.483H548.917C549.226 227.483 549.523 227.607 549.742 227.826C549.961 228.045 550.084 228.342 550.084 228.652V230.209C550.084 230.519 549.961 230.816 549.742 231.035C549.523 231.254 549.226 231.377 548.917 231.378Z" fill="white"/>
<path d="M581.599 242.282H576.93C576.621 242.282 576.324 242.159 576.105 241.94C575.886 241.721 575.763 241.424 575.763 241.114V239.556C575.763 239.246 575.886 238.949 576.105 238.73C576.324 238.511 576.621 238.388 576.93 238.388H581.599C581.909 238.388 582.205 238.511 582.424 238.73C582.643 238.949 582.766 239.246 582.766 239.556V241.114C582.766 241.424 582.643 241.721 582.424 241.94C582.205 242.159 581.909 242.282 581.599 242.282Z" fill="white"/>
<path d="M574.272 226.595C574.192 225.453 574.363 224.307 574.773 223.238C575.184 222.169 575.823 221.203 576.647 220.408C577.47 219.614 578.458 219.009 579.54 218.638C580.622 218.267 581.772 218.137 582.91 218.259L594.767 193.082L602.286 205.434L589.874 227.448C589.543 229.347 588.527 231.059 587.02 232.259C585.512 233.459 583.618 234.063 581.694 233.958C579.771 233.853 577.953 233.045 576.585 231.688C575.218 230.331 574.394 228.519 574.272 226.595Z" fill="#FFB6B6"/>
<path d="M606.51 94.9005L611.393 88.5261C611.393 88.5261 623.291 86.1004 625.312 102.458L624.039 175.181L597.967 216.257L581.033 211.93L603.173 163.134L606.51 94.9005Z" fill="#E4E4E4"/>
</g>
<defs>
<clipPath id="clip0_3_144">
<rect width="691" height="424" fill="white"/>
</clipPath>
</defs>
</svg>
