<svg width="171" height="113" viewBox="0 0 171 113" fill="none" xmlns="http://www.w3.org/2000/svg">
<path d="M45.6552 75.5096V56.8822L50.0126 52.6042V75.5096H45.6552Z" fill="#15282E"/>
<path d="M51.7419 52.1423V75.5096H55.5698V55.2132L51.7419 52.1423Z" fill="#DD2026"/>
<path d="M57.3683 75.5096V28.2505L61.2881 24.3423V75.5096H57.3683Z" fill="#15282E"/>
<path d="M63.0174 75.5096V23.5342L72.9084 32.3314V75.5096H63.0174Z" fill="#DD2026"/>
<path d="M74.9835 75.5096H84.8525V1.71465L74.9835 11.135V75.5096Z" fill="#15282E"/>
<path d="M96.7503 75.5096H86.882V1.71465L96.7503 11.135V75.5096Z" fill="#DD2026"/>
<path d="M126.31 75.5096V56.8822L121.951 52.6042V75.5096H126.31Z" fill="#DD2026"/>
<path d="M120.222 52.1423V75.5096H116.395V55.2132L120.222 52.1423Z" fill="#15282E"/>
<path d="M114.596 75.5096V28.2505L110.677 24.3423V75.5096H114.596Z" fill="#DD2026"/>
<path d="M108.947 75.5096V23.5342L99.0555 32.3314V75.5096H108.947Z" fill="#15282E"/>
<path d="M82.431 8.728L77.405 13.5266V14.7655L82.431 9.96694V8.728Z" fill="white"/>
<path d="M82.431 11.6066L77.405 16.4052V17.6442L82.431 12.8456V11.6066Z" fill="white"/>
<path d="M82.431 11.6221L77.405 16.4207V17.6596L82.431 12.8611V11.6221Z" fill="white"/>
<path d="M82.431 14.5008L77.405 19.2993V20.5383L82.431 15.7397V14.5008Z" fill="white"/>
<path d="M92.5457 11.8657L91.0393 10.4288V12.6452L92.5457 14.0821V11.8657Z" fill="white"/>
<path d="M92.5457 16.0077L91.0393 14.57V16.7864L92.5457 18.2241V16.0077Z" fill="white"/>
<path d="M92.5457 20.1489L91.0393 18.7112V20.9276L92.5457 22.3653V20.1489Z" fill="white"/>
<path d="M92.5457 24.2901L91.0393 22.8524V25.0689L92.5457 26.5066V24.2901Z" fill="white"/>
<path d="M92.5457 24.2901L91.0393 22.8524V25.0689L92.5457 26.5066V24.2901Z" fill="white"/>
<path d="M92.5457 28.4313L91.0393 26.9937V29.2101L92.5457 30.6478V28.4313Z" fill="white"/>
<path d="M103.072 33.2641V35.5034V53.0343V56.4139L104.355 55.2735V53.0343V35.5034V32.1237L103.072 33.2641Z" fill="white"/>
<path d="M104.333 75.5096L104.355 75.49V52.6042L103.072 53.7323V75.5096H104.333Z" fill="white"/>
<path d="M103.072 76.0635V76.6182L103.702 76.0635H103.072Z" fill="white"/>
<path d="M66.5192 30.6478V31.6342V31.7499V32.4382V33.2658V33.5403L70.2373 36.8498V36.4214V35.7485V35.0594V35.0138V33.9581L66.5192 30.6478Z" fill="white"/>
<path d="M66.5192 36.2609V37.2473V37.363V38.0513V38.8797V39.1534L70.2373 42.4637V42.0353V41.3616V40.6733V40.6269V39.5712L66.5192 36.2609Z" fill="white"/>
<path d="M66.5192 36.2609V37.2473V37.363V38.0513V38.8797V39.1534L70.2373 42.4637V42.0353V41.3616V40.6733V40.6269V39.5712L66.5192 36.2609Z" fill="white"/>
<path d="M66.5192 41.8748V42.8612V42.9769V43.6652V44.4928V44.7673L70.2373 48.0769V47.6484V46.9756V46.2865V46.2409V45.1852L66.5192 41.8748Z" fill="white"/>
<path d="M15.0987 97.6811L18.5183 98.767C17.9936 100.676 17.1225 102.094 15.9032 103.021C14.6839 103.948 13.1368 104.411 11.2619 104.411C8.94204 104.411 7.03622 103.618 5.5428 102.031C4.04939 100.444 3.30267 98.2741 3.30267 95.5218C3.30267 92.6105 4.05345 90.3493 5.555 88.7381C7.05655 87.1269 9.02988 86.3221 11.4766 86.3221C13.6134 86.3221 15.3493 86.9542 16.6832 88.2192C17.4771 88.967 18.0734 90.0406 18.4703 91.4408L14.9792 92.2757C14.7725 91.3691 14.3414 90.6531 13.6866 90.1277C13.0319 89.6024 12.2347 89.3401 11.2977 89.3401C10.0027 89.3401 8.95261 89.8052 8.14571 90.7362C7.33962 91.6673 6.93617 93.1742 6.93617 95.2586C6.93617 97.4702 7.33311 99.0455 8.12781 99.9839C8.9217 100.922 9.95473 101.392 11.2261 101.392C12.1631 101.392 12.9692 101.094 13.6452 100.497C14.3203 99.9 14.8051 98.9616 15.0987 97.6811Z" fill="#15282E"/>
<path d="M21.4376 104.112V86.6201H24.9646V104.113H21.4376V104.112Z" fill="#15282E"/>
<path d="M32.2568 104.112V89.5786H27.0737V86.6193H40.9545V89.5786H35.7837V104.112H32.2568Z" fill="#15282E"/>
<path d="M47.8181 104.112V96.75L41.4198 86.6193H45.5544L49.6653 93.5398L53.6925 86.6193H57.7555L51.3328 96.7736V104.112H47.8181Z" fill="#15282E"/>
<path d="M65.8571 86.6201H72.8393C74.2213 86.6201 75.2519 86.678 75.9311 86.7928C76.6103 86.9085 77.2179 87.1488 77.754 87.5145C78.29 87.8803 78.7366 88.3674 79.0945 88.9758C79.4524 89.5843 79.6305 90.2669 79.6305 91.022C79.6305 91.8415 79.4101 92.5933 78.9692 93.2775C78.5283 93.9618 77.9305 94.4749 77.1756 94.817C78.2396 95.1274 79.0579 95.656 79.6305 96.4038C80.2023 97.1516 80.4886 98.0305 80.4886 99.0405C80.4886 99.8364 80.304 100.609 79.9347 101.361C79.5654 102.113 79.0611 102.713 78.4218 103.163C77.7824 103.613 76.9934 103.889 76.0564 103.992C75.4683 104.056 74.0505 104.096 71.8031 104.111H65.8571V86.6201ZM69.384 89.5314V93.5765H71.6957C73.0695 93.5765 73.9236 93.5569 74.2571 93.517C74.8607 93.4453 75.3357 93.2368 75.6806 92.8906C76.0255 92.5444 76.1987 92.0891 76.1987 91.5246C76.1987 90.9837 76.0499 90.5447 75.7522 90.2058C75.4545 89.8678 75.0111 89.6625 74.4239 89.5917C74.0741 89.5517 73.0695 89.5322 71.4094 89.5322H69.384V89.5314ZM69.384 96.4877V101.165H72.649C73.9196 101.165 74.7265 101.129 75.0681 101.057C75.5927 100.962 76.019 100.729 76.3492 100.359C76.6786 99.9895 76.8438 99.4942 76.8438 98.8735C76.8438 98.3482 76.7169 97.9034 76.4623 97.5369C76.2077 97.1711 75.8408 96.9048 75.3601 96.7378C74.8794 96.5708 73.8366 96.4869 72.2326 96.4869H69.384V96.4877Z" fill="#15282E"/>
<path d="M83.4803 104.112V86.6201H90.9035C92.7703 86.6201 94.1262 86.7774 94.9722 87.0918C95.8181 87.4062 96.4949 87.965 97.0041 88.7681C97.5124 89.5721 97.767 90.4901 97.767 91.5246C97.767 92.8369 97.3815 93.921 96.6112 94.7763C95.8409 95.6316 94.6891 96.1708 93.1558 96.3932C93.9188 96.8388 94.5476 97.3283 95.0446 97.8611C95.5407 98.3938 96.2102 99.3403 97.0521 100.701L99.1848 104.113H94.9665L92.4164 100.306C91.5111 98.946 90.8913 98.0891 90.5578 97.7348C90.2243 97.3813 89.8705 97.1385 89.4971 97.0066C89.1238 96.8754 88.5316 96.8095 87.7214 96.8095H87.0065V104.112H83.4803ZM87.0073 94.018H89.6167C91.3086 94.018 92.3652 93.9463 92.7857 93.8029C93.2063 93.6596 93.5365 93.4136 93.7748 93.0633C94.0132 92.713 94.1319 92.2756 94.1319 91.7511C94.1319 91.1621 93.9749 90.6872 93.661 90.3256C93.347 89.9639 92.9045 89.735 92.3327 89.6397C92.0463 89.5998 91.189 89.5803 89.759 89.5803H87.0065V94.018H87.0073Z" fill="#15282E"/>
<path d="M100.376 95.4736C100.376 93.6921 100.642 92.1966 101.174 90.987C101.571 90.0959 102.113 89.2968 102.8 88.5889C103.488 87.8811 104.24 87.3557 105.058 87.0136C106.147 86.5525 107.402 86.3212 108.824 86.3212C111.397 86.3212 113.457 87.1203 115.001 88.7193C116.546 90.3182 117.319 92.542 117.319 95.3889C117.319 98.2129 116.552 100.422 115.019 102.017C113.486 103.612 111.437 104.409 108.871 104.409C106.274 104.409 104.208 103.616 102.675 102.029C101.142 100.443 100.376 98.2577 100.376 95.4736ZM104.01 95.3538C104.01 97.3348 104.466 98.8361 105.381 99.8583C106.294 100.881 107.454 101.391 108.859 101.391C110.265 101.391 111.419 100.884 112.321 99.8698C113.222 98.8556 113.673 97.334 113.673 95.3058C113.673 93.3012 113.234 91.8056 112.356 90.8192C111.479 89.8328 110.313 89.34 108.859 89.34C107.406 89.34 106.234 89.8393 105.345 90.8371C104.455 91.8366 104.01 93.3419 104.01 95.3538Z" fill="#15282E"/>
<path d="M120.12 104.112V86.6201H123.646V94.3878L130.772 86.6201H135.514L128.937 93.4331L135.871 104.112H131.308L126.506 95.9029L123.646 98.8263V104.112H120.12Z" fill="#15282E"/>
<path d="M137.694 104.112V86.6201H150.646V89.5794H141.221V93.4575H149.99V96.4046H141.221V101.166H150.979V104.113H137.694V104.112Z" fill="#15282E"/>
<path d="M153.982 104.112V86.6201H161.405C163.272 86.6201 164.628 86.7774 165.474 87.0918C166.319 87.4062 166.996 87.965 167.505 88.7681C168.014 89.5721 168.268 90.4901 168.268 91.5246C168.268 92.8369 167.883 93.921 167.113 94.7763C166.342 95.6316 165.19 96.1708 163.657 96.3932C164.42 96.8388 165.049 97.3283 165.546 97.8611C166.042 98.3938 166.712 99.3403 167.553 100.701L169.686 104.113H165.468L162.918 100.306C162.012 98.946 161.393 98.0891 161.059 97.7348C160.726 97.3813 160.372 97.1385 159.998 97.0066C159.625 96.8754 159.033 96.8095 158.223 96.8095H157.508V104.112H153.982ZM157.509 94.018H160.118C161.81 94.018 162.867 93.9463 163.287 93.8029C163.708 93.6596 164.038 93.4136 164.276 93.0633C164.515 92.713 164.633 92.2756 164.633 91.7511C164.633 91.1621 164.476 90.6872 164.162 90.3256C163.848 89.9639 163.406 89.735 162.834 89.6397C162.548 89.5998 161.69 89.5803 160.26 89.5803H157.508V94.018H157.509Z" fill="#15282E"/>
</svg>
