<svg width="210" height="69" viewBox="0 0 210 69" fill="none" xmlns="http://www.w3.org/2000/svg">
<path d="M12.7619 38.9507C10.1401 38.9507 7.66608 38.4857 5.33507 37.5508C3.00405 36.6184 1.22648 35.4405 0 34.015L0.919269 32.795C2.0754 34.0851 3.71696 35.1788 5.84395 36.0762C7.97094 36.9759 10.2597 37.4247 12.7104 37.4247C15.1938 37.4247 17.2364 37.0858 18.8357 36.4081C20.4351 35.7303 21.617 34.8236 22.3838 33.6854C23.1483 32.5497 23.5329 31.2877 23.5329 29.8948C23.5329 28.2659 23.1249 26.9619 22.3088 25.978C21.4927 24.9941 20.4116 24.2159 19.0679 23.6387C17.7242 23.0614 16.2608 22.587 14.6779 22.2154C13.095 21.8415 11.4956 21.4442 9.87984 21.0189C8.26408 20.5959 6.78199 20.0514 5.43825 19.39C4.09452 18.7286 3.02281 17.8125 2.22314 16.644C1.42346 15.4732 1.02245 13.9565 1.02245 12.0915C1.02245 10.4977 1.44691 9.0067 2.29818 7.61618C3.14945 6.22567 4.47677 5.09923 6.28014 4.23454C8.08351 3.36985 10.3981 2.9375 13.2216 2.9375C15.161 2.9375 17.0746 3.2343 18.9647 3.8279C20.8525 4.4215 22.4612 5.20907 23.7885 6.19295L23.024 7.5671C21.5959 6.51545 20.013 5.7349 18.2776 5.22777C16.5422 4.7183 14.8749 4.46356 13.2755 4.46356C10.8929 4.46356 8.91132 4.81178 7.32839 5.50587C5.74546 6.2023 4.57995 7.12541 3.83187 8.27755C3.08379 9.4297 2.70857 10.7034 2.70857 12.0915C2.70857 13.7532 3.11662 15.0759 3.9327 16.0598C4.74879 17.0437 5.82988 17.8242 7.17361 18.3991C8.51735 18.9764 9.99006 19.4508 11.5894 19.8223C13.1888 20.1963 14.7881 20.5936 16.3875 21.0189C17.9868 21.4442 19.4572 21.9934 20.8032 22.6712C22.147 23.3489 23.2187 24.258 24.0184 25.3938C24.818 26.5295 25.219 28.0135 25.219 29.8458C25.219 31.4396 24.7852 32.9329 23.9175 34.3211C23.0498 35.7116 21.6873 36.8311 19.8347 37.6794C17.9774 38.5254 15.6206 38.9507 12.7619 38.9507Z" fill="#EB5A2E"/>
<path d="M44.7656 38.7433V3.13672H57.1688C60.1283 3.13672 62.6727 3.61113 64.7997 4.55995C66.9267 5.50878 68.5518 6.85722 69.6751 8.60296C70.7984 10.351 71.3589 12.4614 71.3589 14.9362C71.3589 17.4111 70.7984 19.5331 69.6751 21.2952C68.5518 23.0597 66.9267 24.4151 64.7997 25.3639C62.6727 26.3128 60.1283 26.7872 57.1688 26.7872H45.7341L46.501 25.9739V38.741H44.7656V38.7433ZM46.5033 25.9762L45.7365 25.212H57.272C61.2867 25.212 64.3588 24.3146 66.4858 22.5151C68.6128 20.718 69.6751 18.1917 69.6751 14.9362C69.6751 11.6808 68.6105 9.16151 66.4858 7.38305C64.3588 5.60225 61.2867 4.71186 57.272 4.71186H45.7365L46.5033 3.89858V25.9762Z" fill="#EB5A2E"/>
<path d="M134.758 38.7433V3.13672H147.161C150.12 3.13672 152.665 3.61113 154.792 4.55995C156.919 5.50878 158.544 6.85722 159.667 8.60296C160.791 10.351 161.351 12.4614 161.351 14.9362C161.351 17.4111 160.791 19.5331 159.667 21.2952C158.544 23.0597 156.919 24.4151 154.792 25.3639C152.665 26.3128 150.12 26.7872 147.161 26.7872H135.726L136.491 25.9739V38.741H134.758V38.7433ZM136.493 25.9762L135.729 25.212H147.264C151.279 25.212 154.351 24.3146 156.478 22.5151C158.605 20.718 159.667 18.1917 159.667 14.9362C159.667 11.6808 158.603 9.16151 156.478 7.38305C154.351 5.60225 151.279 4.71186 147.264 4.71186H135.729L136.493 3.89858V25.9762ZM159.871 38.7433L150.58 25.822H152.571L161.912 38.7433H159.871Z" fill="#EB5A2E"/>
<path d="M181.613 38.7456V3.13906H183.349V38.748H181.613V38.7456ZM183.095 29.5893L183.044 27.4018L206.729 3.13672H208.873L192.895 19.5682L191.875 20.5848L183.095 29.5893ZM207.852 38.7456L191.263 19.9234L192.438 18.7526L209.998 38.7433H207.852V38.7456Z" fill="#EB5A2E"/>
<path d="M50.8578 69.0005C50.0371 69.0005 49.2655 68.9164 48.5456 68.7481C47.8256 68.5799 47.2581 68.3929 46.8407 68.1872V65.4109H47.0307C47.3472 66.3737 47.8538 67.1426 48.555 67.7175C49.2561 68.2924 50.0417 68.5775 50.9141 68.5775C51.7607 68.5775 52.4384 68.3672 52.952 67.9442C53.4632 67.5212 53.7188 66.9814 53.7188 66.32C53.7188 65.8432 53.5758 65.4459 53.292 65.1258C53.0083 64.8056 52.6448 64.5462 52.2016 64.3475C51.7583 64.1466 51.2237 63.9596 50.5905 63.7867C49.7322 63.5366 49.038 63.2936 48.5057 63.0552C47.9757 62.8168 47.5419 62.4873 47.2089 62.0643C46.8735 61.6413 46.707 61.1014 46.707 60.4401C46.707 59.8348 46.8806 59.2903 47.2276 58.8088C47.5747 58.3274 48.0672 57.9512 48.705 57.6801C49.3429 57.409 50.0793 57.2734 50.9118 57.2734C51.5684 57.2734 52.2227 57.3482 52.8723 57.5001C53.5218 57.652 54.0448 57.8133 54.4364 57.9862V60.5359H54.2465C53.944 59.6689 53.4843 58.9795 52.8723 58.4653C52.2602 57.9512 51.5168 57.6941 50.6468 57.6941C50.166 57.6941 49.7275 57.7782 49.3288 57.9465C48.9302 58.1148 48.6112 58.3578 48.372 58.678C48.1328 58.9981 48.0132 59.3744 48.0132 59.8068C48.0132 60.2391 48.1563 60.6013 48.4401 60.8935C48.7238 61.1856 49.0896 61.4286 49.5399 61.6249C49.9878 61.8189 50.56 62.0199 51.2542 62.2255C52.1007 62.4756 52.7855 62.7187 53.3108 62.957C53.8338 63.1954 54.2793 63.5366 54.6475 63.9806C55.0133 64.4247 55.1962 64.9972 55.1962 65.7007C55.1962 66.3387 55.0086 66.9112 54.6381 67.4137C54.2652 67.9162 53.7517 68.3064 53.095 68.5822C52.4361 68.8626 51.6927 69.0005 50.8578 69.0005Z" fill="#343434"/>
<path d="M70.1455 68.7424C70.3097 68.5484 70.448 68.3031 70.5629 68.0109C70.6755 67.7188 70.7341 67.422 70.7341 67.1182V57.7982H69.5217C68.8651 57.7982 68.3116 57.8964 67.8637 58.0903C67.4158 58.2843 67.043 58.5531 66.7451 58.8943C66.4473 59.2355 66.1682 59.6655 65.9009 60.1843H65.7109L66.1284 57.457H77.155L77.5536 60.1843H77.3637C77.1104 59.6655 76.8337 59.2355 76.5312 58.8943C76.2286 58.5531 75.8511 58.2843 75.4032 58.0903C74.9553 57.8964 74.4089 57.7982 73.764 57.7982H72.5328V67.1182C72.5328 67.422 72.5891 67.7188 72.704 68.0109C72.8165 68.3031 72.9573 68.5461 73.1214 68.7424V68.8242H70.1478V68.7424H70.1455Z" fill="#343434"/>
<path d="M94.0735 69.0018C92.4812 69.0018 91.2337 68.6793 90.3308 68.0366C89.4279 67.394 88.9753 66.4802 88.9753 65.3V59.163C88.9753 58.8592 88.9191 58.5624 88.8042 58.2703C88.6916 57.9782 88.5509 57.7351 88.3867 57.5388V57.457H91.3603V57.5388C91.1961 57.7328 91.0578 57.9782 90.9429 58.2703C90.8303 58.5624 90.7717 58.8616 90.7717 59.163V65.3C90.7717 66.3166 91.1094 67.1042 91.7847 67.6627C92.4601 68.2213 93.3536 68.4994 94.4652 68.4994C95.5768 68.4994 96.4702 68.2213 97.1456 67.6627C97.821 67.1065 98.1587 66.3189 98.1587 65.3V59.163C98.1587 58.8709 98.0883 58.5998 97.95 58.3521C97.8116 58.1044 97.6029 57.8333 97.3238 57.5412V57.4594H99.4837V57.5412C99.2046 57.8333 98.9982 58.1044 98.8575 58.3521C98.7192 58.6022 98.6488 58.8709 98.6488 59.163V65.3C98.6488 66.4685 98.2384 67.3776 97.4176 68.0273C96.6039 68.677 95.4876 69.0018 94.0735 69.0018Z" fill="#343434"/>
<path d="M111.543 68.7424C111.707 68.5484 111.845 68.3031 111.96 68.0109C112.075 67.7188 112.132 67.422 112.132 67.1182V59.163C112.132 58.8592 112.075 58.5624 111.96 58.2703C111.848 57.9782 111.707 57.7351 111.543 57.5388V57.457H116.355C117.593 57.457 118.724 57.6463 119.746 58.0249C120.769 58.4035 121.594 59.0158 122.218 59.8595C122.844 60.7031 123.156 61.7968 123.156 63.1383C123.156 64.4797 122.844 65.5734 122.218 66.4171C121.592 67.2607 120.769 67.8731 119.746 68.2516C118.724 68.6302 117.593 68.8195 116.355 68.8195H111.543V68.7424ZM115.921 68.4666C116.932 68.4666 117.828 68.289 118.611 67.9315C119.394 67.5739 120.016 66.9967 120.478 66.2021C120.94 65.4075 121.17 64.3862 121.17 63.1406C121.17 61.895 120.94 60.8784 120.478 60.0885C120.016 59.2986 119.394 58.7213 118.611 58.3591C117.828 57.9969 116.932 57.8146 115.921 57.8146C115.316 57.8146 114.653 57.8964 113.933 58.0576V68.2213C114.65 68.3849 115.314 68.4666 115.921 68.4666Z" fill="#343434"/>
<path d="M135.129 68.7424C135.293 68.5484 135.431 68.3031 135.546 68.0109C135.661 67.7188 135.718 67.422 135.718 67.1182V59.163C135.718 58.8592 135.661 58.5624 135.546 58.2703C135.434 57.9782 135.293 57.7351 135.129 57.5388V57.457H138.046V57.5388C137.882 57.7328 137.744 57.9782 137.629 58.2703C137.514 58.5624 137.458 58.8616 137.458 59.163V67.1182C137.458 67.422 137.514 67.7188 137.629 68.0109C137.741 68.3031 137.882 68.5461 138.046 68.7424V68.8242H135.129V68.7424Z" fill="#343434"/>
<path d="M156.142 68.9997C154.929 68.9997 153.862 68.7567 152.941 68.2683C152.019 67.7822 151.302 67.0928 150.79 66.207C150.279 65.3213 150.023 64.2977 150.023 63.1386C150.023 61.9794 150.279 60.9581 150.79 60.0701C151.302 59.182 152.019 58.4949 152.941 58.0088C153.862 57.5227 154.929 57.2773 156.142 57.2773C157.354 57.2773 158.421 57.5204 159.343 58.0088C160.264 58.4949 160.982 59.1843 161.493 60.0701C162.004 60.9581 162.26 61.9817 162.26 63.1386C162.26 64.2977 162.004 65.319 161.493 66.207C160.982 67.0951 160.264 67.7822 159.343 68.2683C158.421 68.7567 157.354 68.9997 156.142 68.9997ZM156.142 68.6422C156.963 68.6422 157.685 68.4085 158.311 67.9434C158.937 67.4784 159.42 66.8287 159.76 65.9944C160.1 65.1601 160.271 64.2089 160.271 63.1362C160.271 62.0635 160.1 61.1124 159.76 60.278C159.42 59.4437 158.937 58.7964 158.311 58.329C157.685 57.8639 156.963 57.6302 156.142 57.6302C155.321 57.6302 154.599 57.8639 153.973 58.329C153.346 58.7941 152.863 59.4437 152.523 60.278C152.183 61.1124 152.012 62.0635 152.012 63.1362C152.012 64.2089 152.183 65.1601 152.523 65.9944C152.863 66.8287 153.346 67.4784 153.973 67.9434C154.596 68.4108 155.319 68.6422 156.142 68.6422Z" fill="#343434"/>
<path d="M115.779 39.5701H90.3726L91.0456 38.1118C95.2292 29.5771 100.682 24.2791 105.747 20.9886L104.868 19.1027C100.121 20.7245 96.111 23.0148 93.0577 25.1251C86.74 29.4906 83.0371 34.0501 83.002 34.0945L79.5781 38.0721L97.3304 0L105.529 17.5836C109.682 16.2819 114.349 15.5013 119.402 15.742L125.145 16.0155L119.477 16.969C119.44 16.976 119.379 16.9853 119.297 16.997C117.2 17.2962 112.548 18.287 107.335 21.4537L115.779 39.5701ZM92.3213 38.3315H113.83L106.275 22.1244C101.474 25.2747 96.3244 30.3039 92.3213 38.3315ZM97.3304 2.93995L84.341 30.7947C86.0857 29.0373 88.7849 26.5741 92.3143 24.1296C95.4239 21.9772 99.5067 19.6402 104.338 17.9739L97.3304 2.93995ZM106.056 18.7171L106.807 20.3272C109.246 18.8596 111.567 17.8477 113.575 17.1536C110.918 17.4387 108.406 17.9902 106.056 18.7171Z" fill="#EB5A2E"/>
<path d="M124.039 16.1035C125.191 11.7544 125.96 8.18539 125.757 8.13202C125.555 8.07866 124.456 11.5611 123.304 15.9103C122.153 20.2595 121.383 23.8284 121.586 23.8818C121.789 23.9351 122.887 20.4527 124.039 16.1035Z" fill="#EB5A2E"/>
<path d="M131.573 18.0838C131.627 17.8817 128.132 16.7872 123.768 15.6393C119.404 14.4914 115.822 13.7247 115.769 13.9269C115.715 14.1291 119.21 15.2235 123.574 16.3714C127.938 17.5193 131.519 18.286 131.573 18.0838Z" fill="#EB5A2E"/>
</svg>
